<svg width="700" height="1200" viewBox="0 0 700 1200" fill="none" xmlns="http://www.w3.org/2000/svg">
<g clip-path="url(#clip0_3036_1375)">
<rect width="700" height="1200" fill="white"/>
<rect width="700" height="1200" fill="black"/>
<mask id="mask0_3036_1375" style="mask-type:luminance" maskUnits="userSpaceOnUse" x="0" y="2" width="700" height="1198">
<path d="M-5.23463e-05 2.45544L0 1200L700 1200L700 2.45541L-5.23463e-05 2.45544Z" fill="white"/>
</mask>
<g mask="url(#mask0_3036_1375)">
<path d="M791.76 -88.3024L791.76 1290.76L-91.7559 1290.76L-91.7559 -88.3066L791.76 -88.3067L791.76 -88.3024ZM789.939 1288.98L789.939 -86.5186L-89.9356 -86.5186L-89.9355 1288.98L789.939 1288.98Z" fill="white" fill-opacity="0.1"/>
<path d="M657.68 -87.4098L657.68 1289.88L659.504 1289.87L659.504 -87.4098L657.68 -87.4098Z" fill="white" fill-opacity="0.1"/>
<path d="M613.594 -87.4098L613.594 1289.88L615.418 1289.87L615.418 -87.4098L613.594 -87.4098Z" fill="white" fill-opacity="0.1"/>
<path d="M569.508 -87.4137L569.508 1289.87L571.332 1289.87L571.332 -87.4137L569.508 -87.4137Z" fill="white" fill-opacity="0.1"/>
<path d="M525.43 -87.4098L525.43 1289.88L527.254 1289.87L527.254 -87.4098L525.43 -87.4098Z" fill="white" fill-opacity="0.1"/>
<path d="M481.346 -87.4137L481.346 1289.87L483.17 1289.87L483.17 -87.4137L481.346 -87.4137Z" fill="white" fill-opacity="0.1"/>
<path d="M437.262 -87.4098L437.262 1289.88L439.086 1289.87L439.086 -87.4098L437.262 -87.4098Z" fill="white" fill-opacity="0.1"/>
<path d="M393.176 -87.4098L393.176 1289.88L395 1289.87L395 -87.4098L393.176 -87.4098Z" fill="white" fill-opacity="0.1"/>
<path d="M349.09 -87.4098L349.09 1289.88L350.915 1289.87L350.914 -87.4098L349.09 -87.4098Z" fill="white" fill-opacity="0.1"/>
<path d="M305.006 -87.4098L305.006 1289.88L306.831 1289.87L306.83 -87.4098L305.006 -87.4098Z" fill="white" fill-opacity="0.1"/>
<path d="M260.914 -87.4098L260.914 1289.88L262.739 1289.87L262.739 -87.4098L260.914 -87.4098Z" fill="white" fill-opacity="0.1"/>
<path d="M216.834 -87.4098L216.834 1289.88L218.659 1289.87L218.659 -87.4098L216.834 -87.4098Z" fill="white" fill-opacity="0.1"/>
<path d="M172.748 -87.4098L172.748 1289.88L174.573 1289.87L174.573 -87.4098L172.748 -87.4098Z" fill="white" fill-opacity="0.1"/>
<path d="M128.666 -87.4137L128.666 1289.87L130.491 1289.87L130.491 -87.4137L128.666 -87.4137Z" fill="white" fill-opacity="0.1"/>
<path d="M84.5839 -87.4098L84.584 1289.88L86.4087 1289.87L86.4086 -87.4098L84.5839 -87.4098Z" fill="white" fill-opacity="0.1"/>
<path d="M40.498 -87.4098L40.498 1289.88L42.3227 1289.87L42.3227 -87.4098L40.498 -87.4098Z" fill="white" fill-opacity="0.1"/>
<path d="M-90.8457 36.9037L-90.8457 38.6875L790.849 38.6875L790.849 36.9037L-90.8457 36.9037Z" fill="white" fill-opacity="0.1"/>
<path d="M-90.8438 78.642L-90.8438 80.4258L790.851 80.4257L790.851 78.642L-90.8438 78.642Z" fill="white" fill-opacity="0.1"/>
<path d="M-90.8457 120.376L-90.8457 122.16L790.849 122.16L790.849 120.376L-90.8457 120.376Z" fill="white" fill-opacity="0.1"/>
<path d="M-90.8457 162.111L-90.8457 163.895L790.849 163.894L790.849 162.111L-90.8457 162.111Z" fill="white" fill-opacity="0.1"/>
<path d="M-90.8457 203.845L-90.8457 205.629L790.849 205.629L790.849 203.845L-90.8457 203.845Z" fill="white" fill-opacity="0.1"/>
<path d="M-90.8457 245.58L-90.8457 247.363L790.849 247.363L790.849 245.579L-90.8457 245.58Z" fill="white" fill-opacity="0.1"/>
<path d="M-90.8457 287.318L-90.8457 289.102L790.849 289.102L790.849 287.318L-90.8457 287.318Z" fill="white" fill-opacity="0.1"/>
<path d="M-90.8438 329.056L-90.8438 330.84L790.851 330.84L790.851 329.056L-90.8438 329.056Z" fill="white" fill-opacity="0.1"/>
<path d="M-90.8457 370.787L-90.8457 372.57L790.849 372.57L790.849 370.786L-90.8457 370.787Z" fill="white" fill-opacity="0.1"/>
<path d="M-90.8457 412.525L-90.8457 414.309L790.849 414.309L790.849 412.525L-90.8457 412.525Z" fill="white" fill-opacity="0.1"/>
<path d="M-90.8457 454.259L-90.8457 456.043L790.849 456.043L790.849 454.259L-90.8457 454.259Z" fill="white" fill-opacity="0.1"/>
<path d="M-90.8457 496.001L-90.8457 497.785L790.849 497.785L790.849 496.001L-90.8457 496.001Z" fill="white" fill-opacity="0.1"/>
<path d="M-90.8438 537.74L-90.8438 539.523L790.851 539.523L790.851 537.74L-90.8438 537.74Z" fill="white" fill-opacity="0.1"/>
<path d="M-90.8457 579.474L-90.8457 581.258L790.849 581.258L790.849 579.474L-90.8457 579.474Z" fill="white" fill-opacity="0.1"/>
<path d="M-90.8457 621.208L-90.8457 622.992L790.849 622.992L790.849 621.208L-90.8457 621.208Z" fill="white" fill-opacity="0.1"/>
<path d="M-90.8457 662.939L-90.8457 664.723L790.849 664.723L790.849 662.939L-90.8457 662.939Z" fill="white" fill-opacity="0.1"/>
<path d="M-90.8457 704.677L-90.8457 706.461L790.849 706.461L790.849 704.677L-90.8457 704.677Z" fill="white" fill-opacity="0.1"/>
<path d="M-90.8457 746.412L-90.8457 748.195L790.849 748.195L790.849 746.411L-90.8457 746.412Z" fill="white" fill-opacity="0.1"/>
<path d="M-90.8438 788.15L-90.8438 789.934L790.851 789.934L790.851 788.15L-90.8438 788.15Z" fill="white" fill-opacity="0.1"/>
<path d="M-90.8457 829.888L-90.8457 831.672L790.849 831.672L790.849 829.888L-90.8457 829.888Z" fill="white" fill-opacity="0.1"/>
<path d="M-90.8457 871.619L-90.8457 873.402L790.849 873.402L790.849 871.619L-90.8457 871.619Z" fill="white" fill-opacity="0.1"/>
<path d="M-90.8457 913.357L-90.8457 915.141L790.849 915.141L790.849 913.357L-90.8457 913.357Z" fill="white" fill-opacity="0.1"/>
<path d="M-90.8457 955.091L-90.8457 956.875L790.849 956.875L790.849 955.091L-90.8457 955.091Z" fill="white" fill-opacity="0.1"/>
<path d="M-90.8438 996.829L-90.8438 998.613L790.851 998.613L790.851 996.829L-90.8438 996.829Z" fill="white" fill-opacity="0.1"/>
<path d="M-90.8457 1038.57L-90.8457 1040.35L790.849 1040.35L790.849 1038.57L-90.8457 1038.57Z" fill="white" fill-opacity="0.1"/>
<path d="M-90.8457 1080.3L-90.8457 1082.08L790.849 1082.08L790.849 1080.3L-90.8457 1080.3Z" fill="white" fill-opacity="0.1"/>
<path d="M-90.8457 1122.03L-90.8457 1123.82L790.849 1123.82L790.849 1122.03L-90.8457 1122.03Z" fill="white" fill-opacity="0.1"/>
<path d="M-90.8457 1163.77L-90.8457 1165.55L790.849 1165.55L790.849 1163.77L-90.8457 1163.77Z" fill="white" fill-opacity="0.1"/>
</g>
</g>
<defs>
<clipPath id="clip0_3036_1375">
<rect width="700" height="1200" fill="white"/>
</clipPath>
</defs>
</svg>
