<svg  viewBox="0 0 1083 413" fill="none" xmlns="http://www.w3.org/2000/svg">
<path d="M1046.4 406.993H36.6217C27.8203 406.993 19.3794 401.691 13.1559 392.254C6.93238 382.816 3.43604 370.017 3.43604 356.671V55.6535C3.43604 42.3073 6.93238 29.5076 13.1559 20.0704C19.3794 10.6332 27.8203 5.33154 36.6217 5.33154H1046.4C1055.2 5.33154 1063.64 10.6332 1069.87 20.0704C1076.09 29.5076 1079.59 42.3073 1079.59 55.6535V356.671C1079.59 370.017 1076.09 382.816 1069.87 392.254C1063.64 401.691 1055.2 406.993 1046.4 406.993ZM36.6217 7.75614C28.2709 7.76826 20.2643 12.804 14.3593 21.7582C8.45439 30.7123 5.13347 42.8531 5.12549 55.5162V356.533C5.14146 369.189 8.46589 381.318 14.37 390.262C20.2741 399.206 28.2761 404.236 36.6217 404.248H1046.4C1054.75 404.236 1062.75 399.206 1068.65 390.262C1074.56 381.318 1077.88 369.189 1077.9 356.533V55.5162C1077.89 42.8531 1074.57 30.7123 1068.66 21.7582C1062.76 12.804 1054.75 7.76826 1046.4 7.75614H36.6217Z" fill="white"/>
<path d="M1046.4 405.392C1046.4 406.328 1046.53 407.254 1046.79 408.109C1047.04 408.964 1047.41 409.727 1047.87 410.349C1048.33 410.972 1048.88 411.439 1049.47 411.72C1050.05 412.001 1050.68 412.089 1051.29 411.979C1059.32 410.322 1066.77 404.711 1072.49 396.007C1078.22 387.304 1081.9 375.991 1082.97 363.807C1083.04 362.882 1082.99 361.942 1082.81 361.05C1082.63 360.159 1082.32 359.337 1081.91 358.639C1081.5 357.942 1081 357.385 1080.44 357.006C1079.88 356.627 1079.27 356.435 1078.65 356.442C1078.66 362.868 1077.83 369.232 1076.21 375.171C1074.59 381.109 1072.21 386.506 1069.22 391.052C1066.22 395.598 1062.67 399.204 1058.75 401.665C1054.84 404.125 1050.64 405.392 1046.4 405.392Z" fill="white"/>
<path d="M1078.65 55.5164C1079.27 55.5172 1079.88 55.3191 1080.44 54.9349C1081 54.5507 1081.51 53.9894 1081.91 53.2883C1082.32 52.5873 1082.63 51.7626 1082.81 50.8689C1082.99 49.9753 1083.04 49.0331 1082.97 48.1053C1081.89 35.9409 1078.2 24.6509 1072.48 15.972C1066.76 7.29303 1059.31 1.70607 1051.29 0.0706966C1050.68 -0.0461938 1050.06 0.0358553 1049.47 0.311244C1048.88 0.586632 1048.33 1.04913 1047.87 1.66797C1047.41 2.28681 1047.04 3.04777 1046.79 3.90033C1046.53 4.75289 1046.4 5.67754 1046.4 6.61266C1054.96 6.61266 1063.16 11.7649 1069.21 20.9362C1075.26 30.1074 1078.65 42.5463 1078.65 55.5164Z" fill="white"/>
<path d="M36.6217 6.6581C36.6284 5.70589 36.4989 4.76284 36.2421 3.89383C35.9853 3.02482 35.6073 2.25049 35.1341 1.62434C34.661 0.998189 34.1039 0.535029 33.5014 0.266776C32.8988 -0.00147786 32.2651 -0.0684429 31.6438 0.0704844C23.6321 1.7413 16.2024 7.34781 10.4921 16.0315C4.78185 24.7152 1.10583 35.9975 0.0268891 48.1509C-0.0423258 49.0932 0.0224605 50.0469 0.216883 50.948C0.411305 51.8491 0.730844 52.6764 1.15397 53.3744C1.57709 54.0724 2.09396 54.6247 2.66976 54.9942C3.24555 55.3636 3.86688 55.5416 4.49187 55.5162C4.49184 42.5819 7.87404 30.1756 13.897 21.0168C19.9199 11.8581 28.092 6.69444 36.6217 6.6581Z" fill="white"/>
<path d="M4.49191 356.533C3.87255 356.51 3.25691 356.685 2.68575 357.05C2.1146 357.414 1.60095 357.957 1.17882 358.645C0.756698 359.333 0.435718 360.149 0.237137 361.038C0.0385557 361.928 -0.0330964 362.872 0.026923 363.807C1.10325 375.971 4.77699 387.266 10.4865 395.966C16.196 404.665 23.6272 410.289 31.6438 411.979C32.2573 412.089 32.8792 412 33.4685 411.72C34.0578 411.439 34.6012 410.972 35.0629 410.349C35.5247 409.727 35.8942 408.963 36.1473 408.109C36.4003 407.254 36.5312 406.328 36.5312 405.391C28.0172 405.319 19.8683 400.139 13.8649 390.985C7.86154 381.83 4.49177 369.444 4.49191 356.533Z" fill="white"/>
</svg>
